<?xml version="1.0" encoding="UTF-8" standalone="no"?>
<svg
   xmlns:dc="http://purl.org/dc/elements/1.1/"
   xmlns:cc="http://creativecommons.org/ns#"
   xmlns:rdf="http://www.w3.org/1999/02/22-rdf-syntax-ns#"
   xmlns:svg="http://www.w3.org/2000/svg"
   xmlns="http://www.w3.org/2000/svg"
   xmlns:xlink="http://www.w3.org/1999/xlink"
   xmlns:sodipodi="http://sodipodi.sourceforge.net/DTD/sodipodi-0.dtd"
   xmlns:inkscape="http://www.inkscape.org/namespaces/inkscape"
   inkscape:version="1.0 (4035a4fb49, 2020-05-01)"
   height="265"
   width="870"
   sodipodi:docname="logo.svg"
   version="1.1"
   viewBox="0 0 870 265"
   data-name="Layer 1"
   id="Layer_1">
  <metadata
     id="metadata110">
    <rdf:RDF>
      <cc:Work
         rdf:about="">
        <dc:format>image/svg+xml</dc:format>
        <dc:type
           rdf:resource="http://purl.org/dc/dcmitype/StillImage" />
        <dc:title>Logo NDM</dc:title>
      </cc:Work>
    </rdf:RDF>
  </metadata>
  <sodipodi:namedview
     inkscape:current-layer="Layer_1"
     inkscape:window-maximized="1"
     inkscape:window-y="-8"
     inkscape:window-x="-8"
     inkscape:cy="438.35294"
     inkscape:cx="375.45882"
     inkscape:zoom="0.78703704"
     showgrid="false"
     id="namedview108"
     inkscape:window-height="1017"
     inkscape:window-width="1920"
     inkscape:pageshadow="2"
     inkscape:pageopacity="0"
     guidetolerance="10"
     gridtolerance="10"
     objecttolerance="10"
     borderopacity="1"
     bordercolor="#666666"
     pagecolor="#ffffff" />
  <defs
     id="defs45">
    <style
       id="style2">
.cls-1{fill:url(#linear-gradient);}.cls-2{fill:url(#linear-gradient-2);}.cls-3{fill:url(#linear-gradient-3);}.cls-4{fill:url(#linear-gradient-4);}.cls-5{fill:url(#linear-gradient-5);}.cls-6{fill:url(#linear-gradient-6);}.cls-7{fill:url(#linear-gradient-7);}.cls-8{fill:url(#linear-gradient-8);}.cls-9{fill:url(#linear-gradient-9);}.cls-10{fill:url(#linear-gradient-10);}.cls-11{fill:url(#linear-gradient-11);}.cls-12{fill:#14213d;}
</style>
    <linearGradient
       gradientUnits="userSpaceOnUse"
       y2="720.81"
       x2="673.41998"
       y1="320.07001"
       x1="89.940002"
       id="linear-gradient">
      <stop
         id="stop4"
         stop-color="#717171"
         offset="0.01" />
      <stop
         id="stop6"
         stop-color="#777"
         offset="0.38" />
      <stop
         id="stop8"
         stop-color="#7a7a7a"
         offset="0.45" />
      <stop
         id="stop10"
         stop-color="#858585"
         offset="0.5" />
      <stop
         id="stop12"
         stop-color="#969696"
         offset="0.56" />
      <stop
         id="stop14"
         stop-color="#aeaeae"
         offset="0.61" />
      <stop
         id="stop16"
         stop-color="#cdcdcd"
         offset="0.66" />
      <stop
         id="stop18"
         stop-color="#f3f3f3"
         offset="0.71" />
      <stop
         id="stop20"
         stop-color="#fff"
         offset="0.72" />
      <stop
         id="stop22"
         stop-color="#e7e7e7"
         offset="0.74" />
      <stop
         id="stop24"
         stop-color="#bebebe"
         offset="0.79" />
      <stop
         id="stop26"
         stop-color="#9f9f9f"
         offset="0.84" />
      <stop
         id="stop28"
         stop-color="#888"
         offset="0.88" />
      <stop
         id="stop30"
         stop-color="#7b7b7b"
         offset="0.93" />
      <stop
         id="stop32"
         stop-color="#767676"
         offset="0.97" />
    </linearGradient>
    <linearGradient
       gradientTransform="translate(-106,-406.09412)"
       xlink:href="#linear-gradient"
       y2="627.84998"
       x2="737.26001"
       y1="227.11"
       x1="153.78999"
       id="linear-gradient-2" />
    <linearGradient
       gradientTransform="translate(-106,-406.09412)"
       xlink:href="#linear-gradient"
       y2="432.57001"
       x2="871.38"
       y1="31.83"
       x1="287.91"
       id="linear-gradient-3" />
    <linearGradient
       gradientTransform="translate(-106,-406.09412)"
       xlink:href="#linear-gradient"
       y2="645.08002"
       x2="725.42999"
       y1="244.34"
       x1="141.96001"
       id="linear-gradient-4" />
    <linearGradient
       gradientTransform="translate(-106,-406.09412)"
       xlink:href="#linear-gradient"
       y2="581.59003"
       x2="769.03998"
       y1="180.85001"
       x1="185.56"
       id="linear-gradient-5" />
    <linearGradient
       gradientTransform="translate(-106,-406.09412)"
       xlink:href="#linear-gradient"
       y2="529.52002"
       x2="804.79999"
       y1="128.78"
       x1="221.32001"
       id="linear-gradient-6" />
    <linearGradient
       gradientTransform="translate(-106,-406.09412)"
       xlink:href="#linear-gradient"
       y2="540.22998"
       x2="797.44"
       y1="139.5"
       x1="213.97"
       id="linear-gradient-7" />
    <linearGradient
       gradientTransform="translate(-106,-406.09412)"
       xlink:href="#linear-gradient"
       y2="687.59998"
       x2="696.21997"
       y1="286.87"
       x1="112.75"
       id="linear-gradient-8" />
    <linearGradient
       gradientTransform="translate(-106,-406.09412)"
       xlink:href="#linear-gradient"
       y2="789.46002"
       x2="626.26001"
       y1="388.73001"
       x1="42.790001"
       id="linear-gradient-9" />
    <linearGradient
       gradientTransform="translate(-106,-406.09412)"
       xlink:href="#linear-gradient"
       y2="902.46002"
       x2="548.65997"
       y1="501.72"
       x1="-34.810001"
       id="linear-gradient-10" />
    <linearGradient
       gradientTransform="translate(-106,-406.09412)"
       xlink:href="#linear-gradient"
       y2="799.91998"
       x2="619.08002"
       y1="399.17999"
       x1="35.610001"
       id="linear-gradient-11" />
    <linearGradient
       gradientTransform="translate(-106,-406.09412)"
       y2="720.81"
       x2="673.41998"
       y1="320.07001"
       x1="89.940002"
       gradientUnits="userSpaceOnUse"
       id="linearGradient631"
       xlink:href="#linear-gradient"
       inkscape:collect="always" />
  </defs>
  <title
     id="title47">Logo NDM</title>
  <path
     style="fill:url(#linearGradient631)"
     id="path49"
     d="m 526.86,164.42588 h 2.2 c -5.42,25.26 -17.62,47 -36.14,63.75 -23.39,21.2 -55.13,32.88 -89.37,32.88 h -4.15 c -33.67,-1.07 -63.48,-1.59 -91.21,-1.59 -2.93,0 -4.69,-2.07 -4.69,-4.06 0,-1.8 1.8,-3.73 4.69,-3.73 14.12,0 23.37,-2.12 23.37,-30.39 v -56.86 h 27.89 v 56.86 c 0,19.5 6.36,30.07 39.95,30.07 h 3.83 c 48.52,0 87,-35.71 98.19,-86.93 z"
     class="cls-1" />
  <path
     style="fill:url(#linear-gradient-2)"
     id="path51"
     d="m 527.68,105.97588 h 2.21 C 525.05,79.395882 512.89,56.585882 494.1,39.055882 471.3,17.815882 440.39,6.1158824 407.05,6.1158824 l -98.86,0.32 c -2.89,0 -4.69,1.94 -4.69,3.7299996 0,2 1.76,4.06 4.69,4.06 14.12,0 23.37,2.11 23.37,30.39 v 61.359998 h 27.89 V 35.685882 c 0,-15.85 1.95,-19.87 19.86,-19.87 h 24.24 c 49.53,0 88.57,37.25 98.63,90.159998 z"
     class="cls-2" />
  <path
     style="fill:url(#linear-gradient-3)"
     id="path53"
     d="m 829.27,105.97588 h 2.14 V 43.975882 c 0,-28.34 9,-30.39 23.69,-30.39 a 4.08,4.08 0 0 0 4.37,-4.0499996 c 0,-1.84 -1.64,-3.74 -4.43,-3.74 v 0 c -12.84,0.31 -26.12,0.64 -39.17,0.64 -11.7,0 -12.71,2.34 -19.25,17.5499996 q -1.11,2.6 -2.47,5.71 l -34.4,76.279998 h 10.35 c 5,-11.119998 10,-22.359998 15.2,-33.999998 l 18.22,-41.13 v 75.159998 h 25.75 z"
     class="cls-3" />
  <path
     style="fill:url(#linear-gradient-4)"
     id="path55"
     d="m 595.51,164.42588 h 2.14 v 61.6 c 0.9,23.86 9.84,25.65 23.37,25.65 2.94,0 4.69,2.06 4.69,4.05 0,1.99 -1.88,3.74 -4.37,3.74 H 621 c -9.32,-0.64 -18.85,-0.64 -28.06,-0.64 -9.64,0 -18.75,0 -28.24,0.63 h -0.78 a 3.74,3.74 0 0 1 -4.06,-3.74 c 0,-2 1.76,-4.05 4.7,-4.05 14.14,0 22.79,-1.86 23.69,-27.6 v -59.64 h 7.25 z"
     class="cls-4" />
  <path
     style="fill:url(#linear-gradient-5)"
     id="path57"
     d="m 741.48,164.42588 h 2.35 c -3.77,8.39 -7.59,16.87 -11.47,25.53 l -32.46,71.74 h -8.25 l -0.54,-1.34 -39,-95.93 H 682 l 24.59,60.31 17.1,-38.76 9.72,-21.55 h 8.1 z"
     class="cls-5" />
  <path
     style="fill:url(#linear-gradient-6)"
     id="path59"
     d="m 655.81,105.97588 h 2.32 L 625.88,26.905882 c -1,-2.55 -1.88,-4.76 -2.62,-6.66 C 619.16,9.6058824 618.19,7.0758824 608.9,7.0758824 h -15.3 c -9.85,0 -20.44,-0.36 -29,-0.64 h -0.64 a 3.73,3.73 0 0 0 -4.06,3.7299996 c 0,2 1.76,4.06 4.7,4.06 14.14,0 22.79,1.86 23.68,27.52 v 64.229998 h 9.39 V 30.685882 l 30.64,75.289998 h 27.52 z"
     class="cls-6" />
  <path
     style="fill:url(#linear-gradient-7)"
     id="path61"
     d="m 829.27,164.42588 h 2.14 v 56.86 c 0,28.34 9,30.39 23.69,30.39 a 4.07,4.07 0 0 1 4.37,4.05 3.74,3.74 0 0 1 -4.06,3.74 h -1.3 c -12.62,-0.31 -24.54,-0.61 -36.64,-0.61 -12.41,0 -25,0.32 -37.26,0.64 h -0.69 a 3.74,3.74 0 0 1 -4.06,-3.74 c 0,-2 1.76,-4.05 4.69,-4.05 14.55,0 23.37,-2 23.37,-30.39 v -56.89 z"
     class="cls-7" />
  <path
     style="fill:url(#linear-gradient-8)"
     id="path63"
     d="m 252.08,105.97588 h 2.14 V 39.905882 c 0.9,-23.89 9.84,-25.68 23.37,-25.68 2.94,0 4.7,-2.06 4.7,-4.06 0,-1.9999996 -1.88,-3.7299996 -4.38,-3.7299996 h -0.39 c -8.22,0.28 -18.46,0.64 -28,0.64 -9.54,0 -19.76,-0.36 -28.06,-0.64 h -0.64 c -2.49,0 -4.37,1.61 -4.37,3.7299996 0,2.12 1.72,4.06 5,4.06 14.14,0 22.77,1.86 23.37,27.52 v 64.229998 h 7.24 z"
     class="cls-8" />
  <path
     style="fill:url(#linear-gradient-9)"
     id="path65"
     d="m 140.65,105.97588 h 2.87 L 63.93,17.035882 C 55.53,7.6258824 53.08,7.0358824 37.78,7.0358824 h -2.87 c -7,0 -13.66,-0.29 -20.71,-0.6 H 12.59 A 3.73,3.73 0 0 0 8.53,10.165882 c 0,2 1.75,4.06 4.69,4.06 14.14,0 22.77,1.86 23.37,27.52 V 105.97588 H 46 V 38.655882 l 60.34,67.319998 h 34.33 z"
     class="cls-9" />
  <path
     style="fill:url(#linear-gradient-10)"
     id="path67"
     d="M 43.84,164.42588 H 46 v 56.86 l 0.32,4.7 c 0.89,23.9 9.83,25.69 23.37,25.69 2.94,0 4.69,2.06 4.69,4.05 0,1.99 -1.88,3.74 -4.37,3.74 h -0.32 c -9.32,-0.64 -19,-0.64 -28.38,-0.64 -9.22,0 -18.75,0 -27.92,0.63 h -0.78 a 3.74,3.74 0 0 1 -4.06,-3.74 c 0,-2 1.75,-4.05 4.69,-4.05 14.14,0 22.77,-1.86 23.37,-27.57 v -59.67 h 7.25 z"
     class="cls-10" />
  <path
     style="fill:url(#linear-gradient-11)"
     id="path69"
     d="m 252.08,164.42588 h 2.14 v 97.59 H 246 l -16.49,-18.47 a 59.38,59.38 0 0 1 -6.4,-7.13 l -1.11,-1.34 -63.32,-70.65 h 37.12 l 49,54.76 v -54.76 h 7.24 z"
     class="cls-11" />
  <path
     id="path71"
     d="m 8.53,118.90588 h 3.25 v 29.38 h 12.51 v 3.13 H 8.53 Z"
     class="cls-12" />
  <path
     id="path73"
     d="m 58.84,118.90588 15.16,32.54 h -3.51 l -5.11,-10.69 h -14 l -5.06,10.69 h -3.63 l 15.31,-32.54 z m -0.41,6.91 -5.57,11.77 H 64 Z"
     class="cls-12" />
  <path
     id="path75"
     d="m 93.32,118.90588 h 3.34 l 6.64,23.43 9.32,-23.43 h 0.68 l 9.21,23.43 6.76,-23.43 h 3.31 l -9.34,32.51 h -0.61 l -9.63,-24.57 -9.83,24.6 h -0.61 z"
     class="cls-12" />
  <path
     id="path77"
     d="m 183.38,118.90588 h 16.29 v 3.18 h -13 v 10.22 h 13 v 3.19 h -13 v 15.95 h -3.25 z"
     class="cls-12" />
  <path
     id="path79"
     d="m 221,118.90588 h 3.25 v 32.51 H 221 Z"
     class="cls-12" />
  <path
     id="path81"
     d="m 248,118.90588 h 6.47 a 39.78,39.78 0 0 1 7.34,0.44 8.4,8.4 0 0 1 4.71,2.85 8.09,8.09 0 0 1 1.81,5.36 8.61,8.61 0 0 1 -1.25,4.67 7.76,7.76 0 0 1 -3.57,3 16.58,16.58 0 0 1 -6.41,1.05 l 11.7,15.09 h -4 l -11.7,-15.09 h -1.83 v 15.09 H 248 Z m 3.25,3.18 v 11.06 h 5.6 a 14,14 0 0 0 4.81,-0.62 5,5 0 0 0 2.44,-2 5.51,5.51 0 0 0 0.87,-3 5.25,5.25 0 0 0 -0.88,-3 4.93,4.93 0 0 0 -2.33,-1.91 13.91,13.91 0 0 0 -4.78,-0.58 z"
     class="cls-12" />
  <path
     id="path83"
     d="m 289.9,151.44588 4.66,-32.54 h 0.52 l 13.22,26.68 13.09,-26.68 h 0.52 l 4.68,32.51 h -3.18 l -3.22,-23.25 -11.49,23.28 h -0.83 l -11.64,-23.43 -3.23,23.43 z"
     class="cls-12" />
  <path
     id="path85"
     d="m 402.35,139.42588 2.2,2.33 a 50,50 0 0 1 -4,3.25 c 0.88,0.81 2,1.93 3.46,3.35 1.12,1.12 2.09,2.15 2.9,3.09 h -4.54 l -4.37,-4.44 a 28.26,28.26 0 0 1 -6.6,4.27 14.71,14.71 0 0 1 -5.37,1 8.45,8.45 0 0 1 -6,-2.15 7.11,7.11 0 0 1 -2.28,-5.39 9.13,9.13 0 0 1 1.54,-4.87 q 1.53,-2.44 6.26,-6.18 a 29.71,29.71 0 0 1 -3.43,-4.76 6.59,6.59 0 0 1 -0.76,-2.93 5,5 0 0 1 1.88,-4 8,8 0 0 1 5.39,-1.86 8.31,8.31 0 0 1 3.71,0.82 6.14,6.14 0 0 1 2.57,2.2 5.34,5.34 0 0 1 0.88,2.93 6.61,6.61 0 0 1 -1.15,3.48 23.39,23.39 0 0 1 -4.54,4.72 l 4.93,5.17 3.23,3.28 a 52.34,52.34 0 0 0 4.09,-3.31 z m -14.67,-3.3 a 25.88,25.88 0 0 0 -5.42,5 6.09,6.09 0 0 0 -1.26,3.38 4.36,4.36 0 0 0 1.57,3.29 5.55,5.55 0 0 0 3.86,1.42 8.53,8.53 0 0 0 3.38,-0.7 27.86,27.86 0 0 0 6,-3.83 l -5.13,-5.29 c -0.92,-0.93 -1.9,-2.02 -3,-3.27 z m 0.4,-4.3 a 16.52,16.52 0 0 0 3.57,-3.61 4.17,4.17 0 0 0 0.84,-2.23 2.38,2.38 0 0 0 -1.1,-1.94 4.72,4.72 0 0 0 -2.91,-0.82 4.46,4.46 0 0 0 -2.82,0.84 2.47,2.47 0 0 0 -1.09,2 3.26,3.26 0 0 0 0.45,1.66 25.79,25.79 0 0 0 3.06,4.1 z"
     class="cls-12" />
  <path
     id="path87"
     d="m 470.05,118.90588 15.17,32.51 h -3.51 l -5.12,-10.69 h -14 l -5.07,10.69 h -3.62 l 15.36,-32.51 z m -0.41,6.91 -5.57,11.77 h 11.12 z"
     class="cls-12" />
  <path
     id="path89"
     d="m 503,145.39588 2.76,-1.66 q 2.93,5.37 6.75,5.37 a 6.43,6.43 0 0 0 3.07,-0.76 5.37,5.37 0 0 0 2.19,-2.05 5.28,5.28 0 0 0 0.75,-2.71 5.52,5.52 0 0 0 -1.11,-3.21 26.5,26.5 0 0 0 -5.57,-5.22 27.8,27.8 0 0 1 -5.06,-4.44 8.11,8.11 0 0 1 -1.72,-5 7.6,7.6 0 0 1 1,-3.87 7.31,7.31 0 0 1 2.87,-2.75 8.23,8.23 0 0 1 4,-1 8.57,8.57 0 0 1 4.3,1.14 14.88,14.88 0 0 1 4.23,4.19 l -2.65,2 a 12.75,12.75 0 0 0 -3.13,-3.2 5.35,5.35 0 0 0 -2.82,-0.78 4.43,4.43 0 0 0 -3.21,1.2 3.86,3.86 0 0 0 -1.25,2.94 4.91,4.91 0 0 0 0.44,2 7.53,7.53 0 0 0 1.61,2.17 q 0.64,0.62 4.2,3.25 a 23.29,23.29 0 0 1 5.79,5.54 8.94,8.94 0 0 1 1.57,4.89 8.26,8.26 0 0 1 -2.68,6.14 9,9 0 0 1 -6.53,2.61 9.56,9.56 0 0 1 -5.38,-1.58 14.56,14.56 0 0 1 -4.42,-5.21 z"
     class="cls-12" />
  <path
     id="path91"
     d="m 541.67,145.39588 2.77,-1.66 q 2.91,5.37 6.74,5.37 a 6.43,6.43 0 0 0 3.07,-0.76 5.37,5.37 0 0 0 2.19,-2.05 5.28,5.28 0 0 0 0.75,-2.71 5.52,5.52 0 0 0 -1.11,-3.21 26.5,26.5 0 0 0 -5.57,-5.22 28.18,28.18 0 0 1 -5.06,-4.44 8.11,8.11 0 0 1 -1.72,-5 7.6,7.6 0 0 1 1,-3.87 7.31,7.31 0 0 1 2.87,-2.75 8.23,8.23 0 0 1 4,-1 8.57,8.57 0 0 1 4.3,1.14 14.88,14.88 0 0 1 4.23,4.19 l -2.65,2 a 12.75,12.75 0 0 0 -3.13,-3.2 5.35,5.35 0 0 0 -2.82,-0.78 4.43,4.43 0 0 0 -3.21,1.2 3.86,3.86 0 0 0 -1.25,2.94 4.91,4.91 0 0 0 0.44,2 7.53,7.53 0 0 0 1.61,2.17 q 0.65,0.62 4.2,3.25 a 23.29,23.29 0 0 1 5.79,5.54 8.94,8.94 0 0 1 1.57,4.89 8.26,8.26 0 0 1 -2.68,6.14 9,9 0 0 1 -6.53,2.61 9.5,9.5 0 0 1 -5.37,-1.58 14.48,14.48 0 0 1 -4.43,-5.21 z"
     class="cls-12" />
  <path
     id="path93"
     d="m 599.18,118.11588 a 16.9,16.9 0 0 1 12.36,4.93 17.09,17.09 0 0 1 -12.1,29.22 16.65,16.65 0 0 1 -12.21,-5 16.29,16.29 0 0 1 -5,-12 17.36,17.36 0 0 1 2.26,-8.69 16.8,16.8 0 0 1 14.66,-8.53 z m 0.14,3.16 a 13.43,13.43 0 0 0 -6.84,1.88 13.57,13.57 0 0 0 -5.05,5.07 14.07,14.07 0 0 0 -1.81,7.1 13.66,13.66 0 0 0 13.7,13.78 14,14 0 0 0 7,-1.83 13.11,13.11 0 0 0 5,-5 14,14 0 0 0 1.81,-7.07 13.71,13.71 0 0 0 -1.81,-7 13.5,13.5 0 0 0 -5.08,-5 13.77,13.77 0 0 0 -6.92,-1.93 z"
     class="cls-12" />
  <path
     id="path95"
     d="m 669.44,124.96588 -2.57,2 a 14,14 0 0 0 -5.09,-4.19 15,15 0 0 0 -6.54,-1.42 14.37,14.37 0 0 0 -7.2,1.87 13.38,13.38 0 0 0 -5.14,5 13.84,13.84 0 0 0 -1.82,7.09 13.32,13.32 0 0 0 4.07,9.92 14.15,14.15 0 0 0 10.29,4 14.45,14.45 0 0 0 11.43,-5.35 l 2.57,1.95 a 16.55,16.55 0 0 1 -6.07,4.78 19,19 0 0 1 -8.13,1.69 q -8.52,0 -13.46,-5.68 a 17.17,17.17 0 0 1 -4.13,-11.58 16.09,16.09 0 0 1 5,-12 17.25,17.25 0 0 1 12.54,-4.88 18.38,18.38 0 0 1 8.22,1.8 16.15,16.15 0 0 1 6.03,5 z"
     class="cls-12" />
  <path
     id="path97"
     d="m 691.61,118.90588 h 3.25 v 32.51 h -3.25 z"
     class="cls-12" />
  <path
     id="path99"
     d="m 731.7,118.90588 15.17,32.51 h -3.51 l -5.12,-10.69 h -14 l -5.07,10.69 h -3.62 l 15.36,-32.51 z m -0.4,6.91 -5.58,11.77 h 11.12 z"
     class="cls-12" />
  <path
     id="path101"
     d="m 764.8,122.11588 v -3.21 h 17.81 v 3.18 h -7.25 v 29.33 h -3.31 v -29.3 z"
     class="cls-12" />
  <path
     id="path103"
     d="m 803.44,118.90588 h 18.63 v 3.18 h -15.39 v 10.22 h 15.26 v 3.19 h -15.26 v 12.77 h 15.26 v 3.18 h -18.5 z"
     class="cls-12" />
  <path
     id="path105"
     d="m 840.44,145.39588 2.76,-1.66 q 2.92,5.37 6.74,5.37 a 6.47,6.47 0 0 0 3.08,-0.76 5.4,5.4 0 0 0 2.18,-2.05 5.19,5.19 0 0 0 0.76,-2.71 5.52,5.52 0 0 0 -1.11,-3.21 26.75,26.75 0 0 0 -5.57,-5.22 27.8,27.8 0 0 1 -5.06,-4.44 8.11,8.11 0 0 1 -1.72,-5 7.5,7.5 0 0 1 1,-3.87 7.28,7.28 0 0 1 2.86,-2.75 8.27,8.27 0 0 1 4,-1 8.57,8.57 0 0 1 4.3,1.14 14.88,14.88 0 0 1 4.23,4.19 l -2.65,2 a 12.75,12.75 0 0 0 -3.13,-3.2 5.35,5.35 0 0 0 -2.82,-0.78 4.47,4.47 0 0 0 -3.22,1.2 3.9,3.9 0 0 0 -1.25,2.94 4.92,4.92 0 0 0 0.45,2 7.53,7.53 0 0 0 1.61,2.17 q 0.65,0.62 4.2,3.25 a 23.66,23.66 0 0 1 5.79,5.54 8.94,8.94 0 0 1 1.57,4.89 8.26,8.26 0 0 1 -2.68,6.14 9,9 0 0 1 -6.54,2.61 9.55,9.55 0 0 1 -5.37,-1.58 14.46,14.46 0 0 1 -4.41,-5.21 z"
     class="cls-12" />
</svg>
